<?xml version="1.0" encoding="UTF-8" standalone="no"?>
<!DOCTYPE svg PUBLIC "-//W3C//DTD SVG 1.1//EN"
 "http://www.w3.org/Graphics/SVG/1.1/DTD/svg11.dtd">
<!-- Generated by graphviz version 2.38.0 (20140413.2041)
 -->
<!-- Pages: 1 -->
<svg width="314pt" height="260pt"
 viewBox="0.00 0.00 314.00 260.00" xmlns="http://www.w3.org/2000/svg" xmlns:xlink="http://www.w3.org/1999/xlink">
<g id="graph0" class="graph" transform="scale(1 1) rotate(0) translate(4 256)">
<polygon fill="white" stroke="none" points="-4,4 -4,-256 310,-256 310,4 -4,4"/>
<!-- fa725e32&#45;b2a1&#45;43ec&#45;a329&#45;9e35c461f7ab -->
<g id="node1" class="node"><title>fa725e32&#45;b2a1&#45;43ec&#45;a329&#45;9e35c461f7ab</title>
<ellipse fill="none" stroke="black" cx="63" cy="-90" rx="27" ry="18"/>
<text text-anchor="middle" x="63" y="-85.8" font-family="Times,serif" font-size="14.00">|</text>
</g>
<!-- c104baff&#45;fd2a&#45;4710&#45;b33c&#45;af883a410f36 -->
<g id="node2" class="node"><title>c104baff&#45;fd2a&#45;4710&#45;b33c&#45;af883a410f36</title>
<ellipse fill="none" stroke="black" cx="27" cy="-18" rx="27" ry="18"/>
<text text-anchor="middle" x="27" y="-13.8" font-family="Times,serif" font-size="14.00">A</text>
</g>
<!-- fa725e32&#45;b2a1&#45;43ec&#45;a329&#45;9e35c461f7ab&#45;&gt;c104baff&#45;fd2a&#45;4710&#45;b33c&#45;af883a410f36 -->
<g id="edge1" class="edge"><title>fa725e32&#45;b2a1&#45;43ec&#45;a329&#45;9e35c461f7ab&#45;&gt;c104baff&#45;fd2a&#45;4710&#45;b33c&#45;af883a410f36</title>
<path fill="none" stroke="black" d="M54.6504,-72.7646C50.2885,-64.2831 44.8531,-53.7144 39.9587,-44.1974"/>
<polygon fill="black" stroke="black" points="42.9904,-42.4395 35.3043,-35.1473 36.7654,-45.6409 42.9904,-42.4395"/>
</g>
<!-- ed5c515b&#45;6399&#45;4db6&#45;a593&#45;9ada767002ee -->
<g id="node3" class="node"><title>ed5c515b&#45;6399&#45;4db6&#45;a593&#45;9ada767002ee</title>
<ellipse fill="none" stroke="black" cx="99" cy="-18" rx="27" ry="18"/>
<text text-anchor="middle" x="99" y="-13.8" font-family="Times,serif" font-size="14.00">B</text>
</g>
<!-- fa725e32&#45;b2a1&#45;43ec&#45;a329&#45;9e35c461f7ab&#45;&gt;ed5c515b&#45;6399&#45;4db6&#45;a593&#45;9ada767002ee -->
<g id="edge2" class="edge"><title>fa725e32&#45;b2a1&#45;43ec&#45;a329&#45;9e35c461f7ab&#45;&gt;ed5c515b&#45;6399&#45;4db6&#45;a593&#45;9ada767002ee</title>
<path fill="none" stroke="black" d="M71.3496,-72.7646C75.7115,-64.2831 81.1469,-53.7144 86.0413,-44.1974"/>
<polygon fill="black" stroke="black" points="89.2346,-45.6409 90.6957,-35.1473 83.0096,-42.4395 89.2346,-45.6409"/>
</g>
<!-- cd6f01f0&#45;8601&#45;4387&#45;874c&#45;c286974f36c9 -->
<g id="node4" class="node"><title>cd6f01f0&#45;8601&#45;4387&#45;874c&#45;c286974f36c9</title>
<ellipse fill="none" stroke="black" cx="135" cy="-162" rx="27" ry="18"/>
<text text-anchor="middle" x="135" y="-157.8" font-family="Times,serif" font-size="14.00">|</text>
</g>
<!-- cd6f01f0&#45;8601&#45;4387&#45;874c&#45;c286974f36c9&#45;&gt;fa725e32&#45;b2a1&#45;43ec&#45;a329&#45;9e35c461f7ab -->
<g id="edge3" class="edge"><title>cd6f01f0&#45;8601&#45;4387&#45;874c&#45;c286974f36c9&#45;&gt;fa725e32&#45;b2a1&#45;43ec&#45;a329&#45;9e35c461f7ab</title>
<path fill="none" stroke="black" d="M120.43,-146.834C110.25,-136.938 96.4761,-123.546 84.9694,-112.359"/>
<polygon fill="black" stroke="black" points="87.4055,-109.846 77.7957,-105.385 82.5259,-114.865 87.4055,-109.846"/>
</g>
<!-- a8b59abb&#45;eeb7&#45;43c8&#45;99e5&#45;027d23ec8e8f -->
<g id="node5" class="node"><title>a8b59abb&#45;eeb7&#45;43c8&#45;99e5&#45;027d23ec8e8f</title>
<ellipse fill="none" stroke="black" cx="135" cy="-90" rx="27" ry="18"/>
<text text-anchor="middle" x="135" y="-85.8" font-family="Times,serif" font-size="14.00">C</text>
</g>
<!-- cd6f01f0&#45;8601&#45;4387&#45;874c&#45;c286974f36c9&#45;&gt;a8b59abb&#45;eeb7&#45;43c8&#45;99e5&#45;027d23ec8e8f -->
<g id="edge4" class="edge"><title>cd6f01f0&#45;8601&#45;4387&#45;874c&#45;c286974f36c9&#45;&gt;a8b59abb&#45;eeb7&#45;43c8&#45;99e5&#45;027d23ec8e8f</title>
<path fill="none" stroke="black" d="M135,-143.697C135,-135.983 135,-126.712 135,-118.112"/>
<polygon fill="black" stroke="black" points="138.5,-118.104 135,-108.104 131.5,-118.104 138.5,-118.104"/>
</g>
<!-- be754518&#45;6166&#45;4d11&#45;8141&#45;23360c019e66 -->
<g id="node6" class="node"><title>be754518&#45;6166&#45;4d11&#45;8141&#45;23360c019e66</title>
<ellipse fill="none" stroke="black" cx="207" cy="-162" rx="27" ry="18"/>
<text text-anchor="middle" x="207" y="-157.8" font-family="Times,serif" font-size="14.00">|</text>
</g>
<!-- a0cbbabc&#45;982d&#45;4969&#45;8799&#45;b6638937b992 -->
<g id="node7" class="node"><title>a0cbbabc&#45;982d&#45;4969&#45;8799&#45;b6638937b992</title>
<ellipse fill="none" stroke="black" cx="207" cy="-90" rx="27" ry="18"/>
<text text-anchor="middle" x="207" y="-85.8" font-family="Times,serif" font-size="14.00">D</text>
</g>
<!-- be754518&#45;6166&#45;4d11&#45;8141&#45;23360c019e66&#45;&gt;a0cbbabc&#45;982d&#45;4969&#45;8799&#45;b6638937b992 -->
<g id="edge5" class="edge"><title>be754518&#45;6166&#45;4d11&#45;8141&#45;23360c019e66&#45;&gt;a0cbbabc&#45;982d&#45;4969&#45;8799&#45;b6638937b992</title>
<path fill="none" stroke="black" d="M207,-143.697C207,-135.983 207,-126.712 207,-118.112"/>
<polygon fill="black" stroke="black" points="210.5,-118.104 207,-108.104 203.5,-118.104 210.5,-118.104"/>
</g>
<!-- 947bebb1&#45;17a8&#45;4a67&#45;806d&#45;378b9286631f -->
<g id="node8" class="node"><title>947bebb1&#45;17a8&#45;4a67&#45;806d&#45;378b9286631f</title>
<ellipse fill="none" stroke="black" cx="279" cy="-90" rx="27" ry="18"/>
<text text-anchor="middle" x="279" y="-85.8" font-family="Times,serif" font-size="14.00">F</text>
</g>
<!-- be754518&#45;6166&#45;4d11&#45;8141&#45;23360c019e66&#45;&gt;947bebb1&#45;17a8&#45;4a67&#45;806d&#45;378b9286631f -->
<g id="edge6" class="edge"><title>be754518&#45;6166&#45;4d11&#45;8141&#45;23360c019e66&#45;&gt;947bebb1&#45;17a8&#45;4a67&#45;806d&#45;378b9286631f</title>
<path fill="none" stroke="black" d="M221.57,-146.834C231.75,-136.938 245.524,-123.546 257.031,-112.359"/>
<polygon fill="black" stroke="black" points="259.474,-114.865 264.204,-105.385 254.595,-109.846 259.474,-114.865"/>
</g>
<!-- 3789c8c5&#45;e70b&#45;4c3f&#45;8006&#45;0cf3de9ed0cf -->
<g id="node9" class="node"><title>3789c8c5&#45;e70b&#45;4c3f&#45;8006&#45;0cf3de9ed0cf</title>
<ellipse fill="none" stroke="black" cx="171" cy="-234" rx="27" ry="18"/>
<text text-anchor="middle" x="171" y="-229.8" font-family="Times,serif" font-size="14.00">&amp;</text>
</g>
<!-- 3789c8c5&#45;e70b&#45;4c3f&#45;8006&#45;0cf3de9ed0cf&#45;&gt;cd6f01f0&#45;8601&#45;4387&#45;874c&#45;c286974f36c9 -->
<g id="edge7" class="edge"><title>3789c8c5&#45;e70b&#45;4c3f&#45;8006&#45;0cf3de9ed0cf&#45;&gt;cd6f01f0&#45;8601&#45;4387&#45;874c&#45;c286974f36c9</title>
<path fill="none" stroke="black" d="M162.65,-216.765C158.288,-208.283 152.853,-197.714 147.959,-188.197"/>
<polygon fill="black" stroke="black" points="150.99,-186.439 143.304,-179.147 144.765,-189.641 150.99,-186.439"/>
</g>
<!-- 3789c8c5&#45;e70b&#45;4c3f&#45;8006&#45;0cf3de9ed0cf&#45;&gt;be754518&#45;6166&#45;4d11&#45;8141&#45;23360c019e66 -->
<g id="edge8" class="edge"><title>3789c8c5&#45;e70b&#45;4c3f&#45;8006&#45;0cf3de9ed0cf&#45;&gt;be754518&#45;6166&#45;4d11&#45;8141&#45;23360c019e66</title>
<path fill="none" stroke="black" d="M179.35,-216.765C183.712,-208.283 189.147,-197.714 194.041,-188.197"/>
<polygon fill="black" stroke="black" points="197.235,-189.641 198.696,-179.147 191.01,-186.439 197.235,-189.641"/>
</g>
</g>
</svg>
